<?xml version="1.0" encoding="utf-8"?>
<svg id="master-artboard" viewBox="0 0 246.11585998535156 176.00331115722656" version="1.1" xmlns="http://www.w3.org/2000/svg" x="0px" y="0px" style="enable-background:new 0 0 336 235.2;" width="246.11585998535156px" height="176.00331115722656px"><rect id="ee-background" x="0" y="0" width="246.11585998535156" height="176.00331115722656" style="fill: white; fill-opacity: 0; pointer-events: none;"/>














<g transform="matrix(2.2587931156158447, 0, 0, 2.2587931156158447, -182.38812255859375, 7.701568603515625)"><path class="fortilogo-o" fill="#EE3124" d="M84.3 26.3h28.2v18.5H84.3zM120.3 0H148v18.5h-27.7zM120.3 52.5H148V71h-27.7zM155.7 26.3H184v18.5h-28.3zM95.9 0C90 1.5 85.4 8.1 84.3 16.5v2.1h28.2V0H95.9zM84.3 52.5v2.3c1 8 5.3 14.4 10.9 16.2h17.4V52.5H84.3zM184 18.5v-2.1c-1.1-8.3-5.7-14.9-11.6-16.5h-16.7v18.5H184zM173.1 71.1c5.5-1.9 9.8-8.2 10.9-16.2v-2.3h-28.3v18.5h17.4z" style="fill: rgb(255, 255, 255);"/></g></svg>